<svg xmlns="http://www.w3.org/2000/svg" viewBox="0 0 512 512" role="img" aria-label="BayadTayoOpo BTO monogram">
  <rect width="512" height="512" rx="112" fill="#5b4cf5"/>
  <g fill="#fff">
    <path d="M102 112h79c42 0 75 31 75 70s-33 70-75 70h-79V112Zm0 148h83c44 0 79 31 79 70s-35 70-79 70h-83V260Z"/>
    <path d="M260 112h150v72h-39v92h-72v-92h-39v-72Z"/>
    <path fill-rule="evenodd" d="M335 258c50 0 89 31 89 72s-39 72-89 72-89-31-89-72 39-72 89-72Zm0 49c-18 0-31 9-31 23s13 23 31 23 31-9 31-23-13-23-31-23Z"/>
  </g>
</svg>
