<svg xmlns="http://www.w3.org/2000/svg" width="1200" height="630" viewBox="0 0 1200 630" role="img" aria-labelledby="title desc">
  <title id="title">BayadTayoOpo</title>
  <desc id="desc">Ambagan without the awkward singilan.</desc>
  <defs>
    <linearGradient id="background" x1="70" y1="20" x2="1120" y2="630" gradientUnits="userSpaceOnUse">
      <stop stop-color="#3929D8"/>
      <stop offset="0.55" stop-color="#5B4CF5"/>
      <stop offset="1" stop-color="#786CF8"/>
    </linearGradient>
    <linearGradient id="panel" x1="790" y1="90" x2="1090" y2="550" gradientUnits="userSpaceOnUse">
      <stop stop-color="#FFFFFF" stop-opacity="0.98"/>
      <stop offset="1" stop-color="#F2F0FF" stop-opacity="0.94"/>
    </linearGradient>
    <filter id="shadow" x="-20%" y="-20%" width="140%" height="160%">
      <feDropShadow dx="0" dy="18" stdDeviation="22" flood-color="#211873" flood-opacity="0.25"/>
    </filter>
  </defs>

  <rect width="1200" height="630" rx="42" fill="url(#background)"/>
  <circle cx="1110" cy="36" r="230" fill="#A49BFF" opacity="0.18"/>
  <circle cx="76" cy="638" r="260" fill="#2317A9" opacity="0.28"/>
  <path d="M0 474C220 385 354 565 587 484C808 408 955 392 1200 500V630H0V474Z" fill="#FFFFFF" opacity="0.055"/>

  <g transform="translate(72 67)">
    <rect width="82" height="82" rx="22" fill="#FFFFFF"/>
    <g transform="translate(7 7) scale(.133)">
      <rect width="512" height="512" rx="112" fill="#5B4CF5"/>
      <g fill="#FFFFFF">
        <path d="M102 112h79c42 0 75 31 75 70s-33 70-75 70h-79V112Zm0 148h83c44 0 79 31 79 70s-35 70-79 70h-83V260Z"/>
        <path d="M260 112h150v72h-39v92h-72v-92h-39v-72Z"/>
        <path fill-rule="evenodd" d="M335 258c50 0 89 31 89 72s-39 72-89 72-89-31-89-72 39-72 89-72Zm0 49c-18 0-31 9-31 23s13 23 31 23 31-9 31-23-13-23-31-23Z"/>
      </g>
    </g>
    <text x="104" y="54" fill="#FFFFFF" font-family="Avenir Next, Avenir, Inter, Arial, sans-serif" font-size="34" font-weight="750" letter-spacing="-1.5">BayadTayo<tspan font-weight="450">Opo</tspan></text>
  </g>

  <g transform="translate(72 205)">
    <text fill="#FFFFFF" font-family="Avenir Next, Avenir, Inter, Arial, sans-serif" font-size="64" font-weight="750" letter-spacing="-2.5">
      <tspan x="0" y="0">Ambagan without the</tspan>
      <tspan x="0" y="74">awkward singilan.</tspan>
    </text>
    <text x="0" y="130" fill="#E8E5FF" font-family="Avenir Next, Avenir, Inter, Arial, sans-serif" font-size="24" font-weight="500">Clear expenses. Easy payments. Kumpletong resibo.</text>

    <g transform="translate(0 172)" font-family="Avenir Next, Avenir, Inter, Arial, sans-serif" font-size="17" font-weight="650">
      <g>
        <rect width="166" height="48" rx="24" fill="#FFFFFF" opacity="0.14"/>
        <circle cx="26" cy="24" r="10" fill="#BEB8FF"/>
        <path d="m21 24 3 3 7-7" fill="none" stroke="#3929D8" stroke-width="3" stroke-linecap="round" stroke-linejoin="round"/>
        <text x="45" y="30" fill="#FFFFFF">Split expenses</text>
      </g>
      <g transform="translate(178)">
        <rect width="166" height="48" rx="24" fill="#FFFFFF" opacity="0.14"/>
        <circle cx="26" cy="24" r="10" fill="#BEB8FF"/>
        <path d="m21 24 3 3 7-7" fill="none" stroke="#3929D8" stroke-width="3" stroke-linecap="round" stroke-linejoin="round"/>
        <text x="45" y="30" fill="#FFFFFF">Track payments</text>
      </g>
      <g transform="translate(356)">
        <rect width="178" height="48" rx="24" fill="#FFFFFF" opacity="0.14"/>
        <circle cx="26" cy="24" r="10" fill="#BEB8FF"/>
        <path d="m21 24 3 3 7-7" fill="none" stroke="#3929D8" stroke-width="3" stroke-linecap="round" stroke-linejoin="round"/>
        <text x="45" y="30" fill="#FFFFFF">Settle with proof</text>
      </g>
    </g>
  </g>

  <g transform="translate(805 90)" filter="url(#shadow)">
    <rect width="323" height="454" rx="34" fill="url(#panel)"/>
    <rect x="24" y="24" width="275" height="102" rx="24" fill="#5B4CF5"/>
    <text x="46" y="57" fill="#DCD8FF" font-family="Avenir Next, Avenir, Inter, Arial, sans-serif" font-size="13" font-weight="600">BORACAY TRIP</text>
    <text x="46" y="96" fill="#FFFFFF" font-family="Avenir Next, Avenir, Inter, Arial, sans-serif" font-size="29" font-weight="750">₱12,480.00</text>
    <circle cx="264" cy="75" r="20" fill="#FFFFFF" opacity="0.18"/>
    <path d="M255 75h18M264 66v18" stroke="#FFFFFF" stroke-width="3" stroke-linecap="round"/>

    <text x="28" y="165" fill="#6B6B80" font-family="Avenir Next, Avenir, Inter, Arial, sans-serif" font-size="13" font-weight="650">RECENT EXPENSES</text>
    <g transform="translate(24 183)">
      <rect width="275" height="68" rx="18" fill="#FFFFFF"/>
      <circle cx="34" cy="34" r="20" fill="#FFF1D6"/>
      <text x="25" y="42" font-size="22">🍕</text>
      <text x="65" y="29" fill="#171824" font-family="Avenir Next, Avenir, Inter, Arial, sans-serif" font-size="15" font-weight="700">Pizza night</text>
      <text x="65" y="48" fill="#77778A" font-family="Avenir Next, Avenir, Inter, Arial, sans-serif" font-size="11">Paid by Julianne</text>
      <text x="252" y="38" text-anchor="end" fill="#171824" font-family="Avenir Next, Avenir, Inter, Arial, sans-serif" font-size="15" font-weight="700">₱1,998</text>
    </g>
    <g transform="translate(24 263)">
      <rect width="275" height="68" rx="18" fill="#FFFFFF"/>
      <circle cx="34" cy="34" r="20" fill="#E9E6FF"/>
      <text x="25" y="42" font-size="22">🚐</text>
      <text x="65" y="29" fill="#171824" font-family="Avenir Next, Avenir, Inter, Arial, sans-serif" font-size="15" font-weight="700">Airport van</text>
      <text x="65" y="48" fill="#77778A" font-family="Avenir Next, Avenir, Inter, Arial, sans-serif" font-size="11">Paid by Marco</text>
      <text x="252" y="38" text-anchor="end" fill="#171824" font-family="Avenir Next, Avenir, Inter, Arial, sans-serif" font-size="15" font-weight="700">₱2,400</text>
    </g>
    <g transform="translate(24 351)">
      <rect width="275" height="67" rx="18" fill="#EDF9F0" stroke="#BDE6C7"/>
      <circle cx="34" cy="33" r="20" fill="#CFEFD7"/>
      <path d="m25 33 6 6 12-14" fill="none" stroke="#29843E" stroke-width="4" stroke-linecap="round" stroke-linejoin="round"/>
      <text x="65" y="29" fill="#246D36" font-family="Avenir Next, Avenir, Inter, Arial, sans-serif" font-size="14" font-weight="750">Payment confirmed</text>
      <text x="65" y="48" fill="#548761" font-family="Avenir Next, Avenir, Inter, Arial, sans-serif" font-size="11">Receipt reviewed · Settled</text>
    </g>
  </g>
</svg>
